<mxfile host="65bd71144e">
    <diagram id="7d4afg2TexkSKAKr9G-d" name="Page-1">
        <mxGraphModel dx="1077" dy="463" grid="1" gridSize="10" guides="1" tooltips="1" connect="1" arrows="1" fold="1" page="1" pageScale="1" pageWidth="827" pageHeight="1169" math="0" shadow="0">
            <root>
                <mxCell id="0"/>
                <mxCell id="1" parent="0"/>
                <mxCell id="19" value="" style="rounded=1;whiteSpace=wrap;html=1;" parent="1" vertex="1">
                    <mxGeometry x="20" y="20" width="640" height="120" as="geometry"/>
                </mxCell>
                <mxCell id="2" value="User" style="rounded=1;whiteSpace=wrap;html=1;fillColor=#dae8fc;strokeColor=#6c8ebf;" parent="1" vertex="1">
                    <mxGeometry x="40" y="40" width="80" height="80" as="geometry"/>
                </mxCell>
                <mxCell id="3" value="Application" style="rounded=1;whiteSpace=wrap;html=1;fillColor=#dae8fc;strokeColor=#6c8ebf;" parent="1" vertex="1">
                    <mxGeometry x="560" y="40" width="80" height="80" as="geometry"/>
                </mxCell>
                <mxCell id="4" value="Broker" style="shape=cylinder3;whiteSpace=wrap;html=1;boundedLbl=1;backgroundOutline=1;size=6;fillColor=#dae8fc;strokeColor=#6c8ebf;" parent="1" vertex="1">
                    <mxGeometry x="310" y="40" width="60" height="80" as="geometry"/>
                </mxCell>
                <mxCell id="5" value="Produce" style="endArrow=classic;html=1;" parent="1" edge="1">
                    <mxGeometry width="50" height="50" relative="1" as="geometry">
                        <mxPoint x="230" y="60" as="sourcePoint"/>
                        <mxPoint x="310" y="60" as="targetPoint"/>
                    </mxGeometry>
                </mxCell>
                <mxCell id="6" value="Produce" style="endArrow=classic;html=1;" parent="1" edge="1">
                    <mxGeometry width="50" height="50" relative="1" as="geometry">
                        <mxPoint x="450" y="100" as="sourcePoint"/>
                        <mxPoint x="370" y="100" as="targetPoint"/>
                    </mxGeometry>
                </mxCell>
                <mxCell id="7" value="Consume" style="endArrow=classic;html=1;" parent="1" edge="1">
                    <mxGeometry width="50" height="50" relative="1" as="geometry">
                        <mxPoint x="370" y="60" as="sourcePoint"/>
                        <mxPoint x="450" y="60" as="targetPoint"/>
                    </mxGeometry>
                </mxCell>
                <mxCell id="8" value="Consume" style="endArrow=classic;html=1;" parent="1" edge="1">
                    <mxGeometry width="50" height="50" relative="1" as="geometry">
                        <mxPoint x="310" y="100" as="sourcePoint"/>
                        <mxPoint x="230" y="100" as="targetPoint"/>
                    </mxGeometry>
                </mxCell>
                <mxCell id="9" value="Generated&lt;br&gt;Code" style="rounded=1;whiteSpace=wrap;html=1;fillColor=#FFF2CC;strokeColor=#d6b656;" parent="1" vertex="1">
                    <mxGeometry x="140" y="40" width="70" height="80" as="geometry"/>
                </mxCell>
                <mxCell id="10" value="Generated&lt;br&gt;Code" style="rounded=1;whiteSpace=wrap;html=1;fillColor=#fff2cc;strokeColor=#d6b656;" parent="1" vertex="1">
                    <mxGeometry x="470" y="40" width="70" height="80" as="geometry"/>
                </mxCell>
                <mxCell id="11" value="" style="rounded=1;whiteSpace=wrap;html=1;fillColor=#f8cecc;strokeColor=#b85450;" parent="1" vertex="1">
                    <mxGeometry x="120" y="40" width="20" height="80" as="geometry"/>
                </mxCell>
                <mxCell id="12" value="" style="rounded=1;whiteSpace=wrap;html=1;fillColor=#f8cecc;strokeColor=#b85450;" parent="1" vertex="1">
                    <mxGeometry x="540" y="40" width="20" height="80" as="geometry"/>
                </mxCell>
                <mxCell id="20" value="" style="rounded=1;whiteSpace=wrap;html=1;fillColor=#ffe6cc;strokeColor=#d79b00;gradientDirection=west;" vertex="1" parent="1">
                    <mxGeometry x="210" y="40" width="20" height="80" as="geometry"/>
                </mxCell>
                <mxCell id="21" value="" style="rounded=1;whiteSpace=wrap;html=1;fillColor=#ffe6cc;strokeColor=#d79b00;gradientDirection=east;" vertex="1" parent="1">
                    <mxGeometry x="450" y="40" width="20" height="80" as="geometry"/>
                </mxCell>
            </root>
        </mxGraphModel>
    </diagram>
</mxfile>
